<?xml version="1.0" encoding="UTF-8" standalone="no"?>
<!-- Created with Inkscape (http://www.inkscape.org/) -->

<svg
   width="175"
   height="175"
   viewBox="0 0 46.302084 46.302083"
   version="1.1"
   id="svg1"
   xmlns="http://www.w3.org/2000/svg"
   xmlns:svg="http://www.w3.org/2000/svg">
  <defs
     id="defs1" />
  <g
     id="layer1">
    <path
       style="fill:#ce8000;fill-opacity:1;stroke:none;stroke-width:0.0535095;paint-order:stroke fill markers"
       d="m 29.464736,16.494981 c 0.199405,1.109985 -1.218381,12.794863 -3.428992,28.778549 l 2.449137,-9.551296 c 2.387033,-1.269508 3.510251,-4.624316 3.693293,-6.556761 l -0.979854,0.354421 c 1.2713,-2.274191 1.096138,-4.282567 1.658211,-6.20234 l -0.979849,0.177209 c 0.592701,-1.961393 0.613958,-5.037577 0.829105,-7.442806 L 32.1028,16.229166 c 0,0 -0.725652,-11.5598971 -2.531427,-9.8170871 -1.805774,1.7428102 -3.046198,9.0196441 -3.046198,9.0196441 h -0.678362 c -0.844499,2.732458 -0.976834,4.851664 -0.904478,7.442808 L 24.113229,22.16569 c 0.06727,4.457856 0.170443,4.941079 0.602986,6.822575 l -0.90448,-0.265817 c 0.586093,2.963684 1.63009,5.116596 3.014932,6.202339 1.174419,-5.006525 1.488692,-12.035331 2.638069,-18.429806 z"
       id="path2" />
    <path
       style="fill:#ffffff;fill-opacity:1;stroke:#ffffff;stroke-width:0.8;stroke-linecap:butt;stroke-linejoin:round;stroke-dasharray:none;stroke-opacity:1;paint-order:normal"
       d="m 32.527491,22.907152 0.339017,-2.22701 5.925852,-8.056175 -1.687736,-0.02595 v -1.328909 l 7.707668,0.08859 -0.265782,4.252506 -1.516844,-0.25058 0.213885,-2.2345 -1.709231,-0.172736 -6.821731,9.922515 6.112979,9.036573 2.392034,0.0886 -0.08859,-2.657816 1.417501,-0.265783 0.08859,4.78407 h -9.568136 l -0.177188,-1.860472 2.480627,-0.177189 -4.322661,-6.701864 0.466263,-2.376315 z"
       id="path4" />
    <path
       style="fill:#ffffff;fill-opacity:1;stroke:#ffffff;stroke-width:1;stroke-dasharray:none;stroke-opacity:1;paint-order:stroke fill markers"
       d="m 13.940816,13.839796 5.556123,0.303061 0.202041,3.232653 h 1.515306 l 0.505102,-6.061224 -19.6989798,0.202041 0.3030612,5.758163 1.6163264,0.20204 0.4040817,-3.434693 5.5561224,-0.101021 0.1010201,19.294898 -3.2326527,0.202041 v 1.414286 H 17.072449 v -1.414286 h -3.030612 z"
       id="path3" />
  </g>
</svg>
