<svg width="288" height="288" viewBox="0 0 288 288" fill="none" xmlns="http://www.w3.org/2000/svg">
<path d="M167.363 118.343C168.116 122.538 162.758 166.702 154.403 227.113L163.659 191.013C172.681 186.215 176.926 173.535 177.618 166.232L173.915 167.571C178.72 158.976 178.058 151.385 180.182 144.129L176.479 144.799C178.719 137.386 178.799 125.759 179.612 116.669L177.333 117.339C177.333 117.339 174.591 73.6476 167.766 80.2346C160.941 86.8216 156.253 114.325 156.253 114.325H153.689C150.497 124.652 149.997 132.662 150.27 142.455L147.137 139.776C147.391 156.624 147.781 158.451 149.416 165.562L145.997 164.557C148.212 175.759 152.158 183.896 157.392 187.999C161.831 169.077 163.019 142.511 167.363 118.343Z" fill="#CE8000"/>
<path d="M178.939 142.578L180.22 134.161L202.617 103.713L196.238 103.615V98.5919L225.369 98.9267L224.365 114.999L218.632 114.052L219.44 105.607L212.98 104.954L187.197 142.456L210.301 176.61L219.342 176.945L219.007 166.9L224.365 165.895L224.7 183.977H188.537L187.867 176.945L197.242 176.275L180.905 150.946L182.667 141.964L178.939 142.578Z" fill="#1A237E"/>
<path d="M108.69 108.308L129.689 109.453L130.453 121.671H136.18L138.089 98.7626L63.6362 99.5263L64.7816 121.289L70.8906 122.053L72.4178 109.072L93.4173 108.69L93.7991 181.615L81.5812 182.379V187.724H120.526V182.379H109.072L108.69 108.308Z" fill="#1A237E"/>
</svg>
